<svg width="29" height="29" viewBox="0 0 29 29" fill="none" xmlns="http://www.w3.org/2000/svg">
<g clip-path="url(#clip0_3_75)">
<path d="M0.860962 14.5C0.860962 20.436 4.66721 25.4656 9.92346 27.3235V1.67657C4.66721 3.53439 0.860962 8.56407 0.860962 14.5Z" fill="#428BC1"/>
<path d="M28.0485 14.5C28.0485 8.56407 24.2875 3.53439 18.986 1.67657V27.3235C24.2875 25.4656 28.0485 20.436 28.0485 14.5Z" fill="#ED4C5C"/>
<path d="M9.92346 27.3234C11.3281 27.8219 12.8688 28.0938 14.4547 28.0938C16.0406 28.0938 17.5813 27.8219 18.986 27.3234V1.67656C17.5813 1.17813 16.086 0.90625 14.4547 0.90625C12.8235 0.90625 11.3281 1.17813 9.92346 1.67656V27.3234Z" fill="white"/>
</g>
<defs>
<clipPath id="clip0_3_75">
<rect width="29" height="29" fill="white"/>
</clipPath>
</defs>
</svg>
