<svg width="27" height="27" viewBox="0 0 27 27" fill="none" xmlns="http://www.w3.org/2000/svg">
<path d="M13.5 27C6.04395 27 0 20.9561 0 13.5C0 6.04395 6.04395 0 13.5 0C20.9561 0 27 6.04395 27 13.5C27 20.9561 20.9561 27 13.5 27ZM7.992 9.7659V9.9036C7.992 10.0826 8.06312 10.2543 8.1897 10.3809C8.31629 10.5075 8.48798 10.5786 8.667 10.5786H10.0129C10.1014 10.5786 10.189 10.5612 10.2707 10.5273C10.3525 10.4935 10.4267 10.4438 10.4893 10.3813C10.5518 10.3187 10.6015 10.2445 10.6353 10.1627C10.6692 10.081 10.6866 9.99342 10.6866 9.90495C10.6866 8.16345 12.0339 7.2333 13.8456 7.2333C15.6114 7.2333 16.7724 8.16345 16.7724 9.4878C16.7724 10.7406 16.1217 11.3224 14.4963 12.0663L14.0319 12.2742C12.6617 12.879 12.15 13.7835 12.15 15.3643V15.525C12.15 15.704 12.2211 15.8757 12.3477 16.0023C12.4743 16.1289 12.646 16.2 12.825 16.2H14.1709C14.2594 16.2 14.347 16.1826 14.4287 16.1487C14.5105 16.1149 14.5847 16.0652 14.6473 16.0027C14.7098 15.9401 14.7595 15.8659 14.7933 15.7841C14.8272 15.7024 14.8446 15.6148 14.8446 15.5264C14.8446 14.8298 15.0309 14.5503 15.5871 14.2951L16.0529 14.0859C18.0036 13.203 19.467 12.042 19.467 9.5094V9.37035C19.467 6.70005 17.145 4.725 13.8456 4.725C10.5003 4.725 7.992 6.6528 7.992 9.7659ZM11.475 20.2378C11.475 21.4083 12.3647 22.275 13.4879 22.275C14.6354 22.275 15.525 21.4083 15.525 20.2378C15.525 19.0674 14.6354 18.225 13.4879 18.225C12.3647 18.225 11.475 19.0674 11.475 20.2378Z" fill="#0D1F3C"/>
</svg>
