<svg width="31" height="31" viewBox="0 0 31 31" fill="none" xmlns="http://www.w3.org/2000/svg">
<path d="M18.233 10.7468C18.3557 10.8941 18.5375 10.9792 18.7292 10.9792H21.7C22.434 10.9792 22.9458 10.9797 23.3442 11.0122C23.735 11.0442 23.9595 11.1037 24.1296 11.1904C24.4941 11.3761 24.7906 11.6725 24.9763 12.0371C25.063 12.2072 25.1225 12.4317 25.1544 12.8226C25.187 13.2209 25.1875 13.7326 25.1875 14.4667V17.825C25.1875 18.5591 25.187 19.0708 25.1544 19.4692C25.1225 19.86 25.063 20.0845 24.9763 20.2546C24.7906 20.6192 24.4941 20.9156 24.1296 21.1013C23.9595 21.188 23.735 21.2475 23.3442 21.2795C22.9458 21.312 22.434 21.3125 21.7 21.3125H11.8833C11.1493 21.3125 10.6376 21.312 10.2392 21.2795C9.84836 21.2475 9.6238 21.188 9.45372 21.1013C9.08916 20.9156 8.79276 20.6192 8.607 20.2546C8.52034 20.0845 8.46081 19.86 8.42888 19.4692C8.39633 19.0708 8.39583 18.5591 8.39583 17.825V10.5917C8.39583 9.85763 8.39633 9.34593 8.42888 8.94755C8.46081 8.55672 8.52034 8.33216 8.607 8.16207C8.79276 7.79751 9.08916 7.50112 9.45372 7.31536C9.6238 7.2287 9.84836 7.16917 10.2392 7.13724C10.6376 7.10469 11.1493 7.10419 11.8833 7.10419H13.564C14.3106 7.10419 14.5653 7.10938 14.7935 7.17072C15.0125 7.22966 15.2196 7.32664 15.4051 7.45723C15.5982 7.59311 15.7653 7.78552 16.2432 8.35904L18.233 10.7468Z" stroke="white" stroke-width="2.66667" stroke-linejoin="round"/>
<path d="M21.9583 20.6667V22.7334C21.9583 23.8185 21.9583 24.361 21.7471 24.7755C21.5614 25.14 21.265 25.4364 20.9005 25.6222C20.486 25.8334 19.9435 25.8334 18.8583 25.8334H6.975C5.8899 25.8334 5.34735 25.8334 4.93289 25.6222C4.56833 25.4364 4.27193 25.14 4.08617 24.7755C3.875 24.361 3.875 23.8185 3.875 22.7334V13.4334C3.875 12.3483 3.875 11.8057 4.08617 11.3913C4.27193 11.0267 4.56833 10.7303 4.93289 10.5445C5.34735 10.3334 5.8899 10.3334 6.975 10.3334H9.04167" stroke="white" stroke-width="2.66667" stroke-linejoin="round"/>
</svg>
